<mxfile host="drawio-plugin" modified="2021-12-11T18:55:26.036Z" agent="5.0 (Macintosh; Intel Mac OS X 11_5_2) AppleWebKit/537.36 (KHTML, like Gecko) Chrome/89.0.4389.114 Safari/537.36" etag="0cuvoNn2iC_WrzOuDFGM" version="14.7.4" type="embed"><diagram id="fGC5eAhElOa9TIGAEOR9" name="Page-1"><mxGraphModel dx="1188" dy="628" grid="1" gridSize="10" guides="1" tooltips="1" connect="1" arrows="1" fold="1" page="1" pageScale="1" pageWidth="850" pageHeight="1100" math="0" shadow="0"><root><mxCell id="0"/><mxCell id="1" parent="0"/><mxCell id="2" value="" style="rounded=0;whiteSpace=wrap;html=1;" parent="1" vertex="1"><mxGeometry x="120" y="200" width="100" height="250" as="geometry"/></mxCell><mxCell id="3" value="" style="rounded=0;whiteSpace=wrap;html=1;" parent="1" vertex="1"><mxGeometry x="480" y="210" width="100" height="250" as="geometry"/></mxCell><mxCell id="6" value="" style="shape=flexArrow;endArrow=classic;html=1;" parent="1" edge="1"><mxGeometry width="50" height="50" relative="1" as="geometry"><mxPoint x="260" y="260" as="sourcePoint"/><mxPoint x="450" y="260" as="targetPoint"/></mxGeometry></mxCell><mxCell id="7" value="" style="shape=parallelogram;perimeter=parallelogramPerimeter;whiteSpace=wrap;html=1;fixedSize=1;rotation=-180;" parent="1" vertex="1"><mxGeometry x="280" y="390" width="150" height="25" as="geometry"/></mxCell><mxCell id="9" value="" style="shape=parallelogram;perimeter=parallelogramPerimeter;whiteSpace=wrap;html=1;fixedSize=1;" parent="1" vertex="1"><mxGeometry x="310" y="210" width="50" height="25" as="geometry"/></mxCell><mxCell id="10" value="" style="shape=parallelogram;perimeter=parallelogramPerimeter;whiteSpace=wrap;html=1;fixedSize=1;" parent="1" vertex="1"><mxGeometry x="360" y="210" width="50" height="25" as="geometry"/></mxCell><mxCell id="11" value="" style="shape=parallelogram;perimeter=parallelogramPerimeter;whiteSpace=wrap;html=1;fixedSize=1;" parent="1" vertex="1"><mxGeometry x="410" y="210" width="50" height="25" as="geometry"/></mxCell><mxCell id="12" value="send model data" style="shape=callout;whiteSpace=wrap;html=1;perimeter=calloutPerimeter;" parent="1" vertex="1"><mxGeometry x="290" y="140" width="200" height="80" as="geometry"/></mxCell><mxCell id="13" value="" style="shape=flexArrow;endArrow=classic;html=1;" parent="1" edge="1"><mxGeometry width="50" height="50" relative="1" as="geometry"><mxPoint x="425" y="440" as="sourcePoint"/><mxPoint x="265" y="440" as="targetPoint"/></mxGeometry></mxCell><mxCell id="14" value="aggregated data" style="shape=callout;whiteSpace=wrap;html=1;perimeter=calloutPerimeter;" parent="1" vertex="1"><mxGeometry x="250" y="320" width="200" height="80" as="geometry"/></mxCell><mxCell id="15" value="" style="shape=parallelogram;perimeter=parallelogramPerimeter;whiteSpace=wrap;html=1;fixedSize=1;" parent="1" vertex="1"><mxGeometry x="260" y="210" width="50" height="25" as="geometry"/></mxCell><mxCell id="16" value="" style="curved=1;endArrow=classic;html=1;entryX=1.023;entryY=0.91;entryDx=0;entryDy=0;entryPerimeter=0;" parent="1" source="3" target="3" edge="1"><mxGeometry width="50" height="50" relative="1" as="geometry"><mxPoint x="582" y="410" as="sourcePoint"/><mxPoint x="660" y="360" as="targetPoint"/><Array as="points"><mxPoint x="660" y="430"/><mxPoint x="610" y="320"/></Array></mxGeometry></mxCell><mxCell id="17" value="aggregate" style="text;html=1;strokeColor=none;fillColor=none;align=center;verticalAlign=middle;whiteSpace=wrap;rounded=0;" parent="1" vertex="1"><mxGeometry x="640" y="360" width="80" height="20" as="geometry"/></mxCell><mxCell id="18" value="client" style="text;html=1;strokeColor=none;fillColor=none;align=center;verticalAlign=middle;whiteSpace=wrap;rounded=0;" parent="1" vertex="1"><mxGeometry x="150" y="250" width="40" height="20" as="geometry"/></mxCell><mxCell id="19" value="server" style="text;html=1;strokeColor=none;fillColor=none;align=center;verticalAlign=middle;whiteSpace=wrap;rounded=0;" parent="1" vertex="1"><mxGeometry x="510" y="250" width="40" height="20" as="geometry"/></mxCell><mxCell id="20" value="using gRPC" style="text;html=1;strokeColor=none;fillColor=none;align=center;verticalAlign=middle;whiteSpace=wrap;rounded=0;" parent="1" vertex="1"><mxGeometry x="90" y="110" width="110" height="20" as="geometry"/></mxCell></root></mxGraphModel></diagram></mxfile>